<mxfile host="app.diagrams.net" agent="Mozilla/5.0 (Macintosh; Intel Mac OS X 10_15_7) AppleWebKit/605.1.15 (KHTML, like Gecko) Version/17.2.1 Safari/605.1.15" version="25.0.3">
  <diagram name="Page-1" id="8hGn9MpdZpZOtTY0MCFd">
    <mxGraphModel dx="1908" dy="2257" grid="1" gridSize="10" guides="1" tooltips="1" connect="1" arrows="1" fold="1" page="1" pageScale="1" pageWidth="827" pageHeight="1169" math="0" shadow="0">
      <root>
        <mxCell id="0" />
        <mxCell id="1" parent="0" />
        <mxCell id="kdzbjwUAarFGx3mEQd5Z-3" value="" style="shape=umlActor;html=1;verticalLabelPosition=bottom;verticalAlign=top;align=center;" vertex="1" parent="1">
          <mxGeometry x="30" y="80" width="120" height="220" as="geometry" />
        </mxCell>
        <mxCell id="kdzbjwUAarFGx3mEQd5Z-4" value="&amp;lt;&amp;lt;controller&amp;gt;&amp;gt;&lt;div&gt;MakePayment&lt;/div&gt;" style="rounded=0;whiteSpace=wrap;html=1;" vertex="1" parent="1">
          <mxGeometry x="370" y="115" width="246" height="150" as="geometry" />
        </mxCell>
        <mxCell id="kdzbjwUAarFGx3mEQd5Z-5" value="Payment" style="rounded=0;whiteSpace=wrap;html=1;" vertex="1" parent="1">
          <mxGeometry x="990" y="-150" width="246" height="150" as="geometry" />
        </mxCell>
        <mxCell id="kdzbjwUAarFGx3mEQd5Z-6" value="Airline/CarComp/Airline" style="rounded=0;whiteSpace=wrap;html=1;" vertex="1" parent="1">
          <mxGeometry x="1090" y="200" width="246" height="150" as="geometry" />
        </mxCell>
        <mxCell id="kdzbjwUAarFGx3mEQd5Z-9" value="" style="endArrow=none;html=1;rounded=0;exitX=0.5;exitY=0.5;exitDx=0;exitDy=0;exitPerimeter=0;entryX=0;entryY=0.5;entryDx=0;entryDy=0;" edge="1" parent="1" source="kdzbjwUAarFGx3mEQd5Z-3" target="kdzbjwUAarFGx3mEQd5Z-4">
          <mxGeometry width="50" height="50" relative="1" as="geometry">
            <mxPoint x="330" y="330" as="sourcePoint" />
            <mxPoint x="380" y="280" as="targetPoint" />
          </mxGeometry>
        </mxCell>
        <mxCell id="kdzbjwUAarFGx3mEQd5Z-10" value="" style="endArrow=none;html=1;rounded=0;exitX=1;exitY=0.5;exitDx=0;exitDy=0;entryX=0;entryY=0.5;entryDx=0;entryDy=0;" edge="1" parent="1" source="kdzbjwUAarFGx3mEQd5Z-4" target="kdzbjwUAarFGx3mEQd5Z-5">
          <mxGeometry width="50" height="50" relative="1" as="geometry">
            <mxPoint x="516" y="190" as="sourcePoint" />
            <mxPoint x="696" y="190" as="targetPoint" />
          </mxGeometry>
        </mxCell>
        <mxCell id="kdzbjwUAarFGx3mEQd5Z-11" value="" style="endArrow=none;html=1;rounded=0;entryX=0;entryY=0.5;entryDx=0;entryDy=0;exitX=1;exitY=0.5;exitDx=0;exitDy=0;" edge="1" parent="1" source="kdzbjwUAarFGx3mEQd5Z-4" target="kdzbjwUAarFGx3mEQd5Z-6">
          <mxGeometry width="50" height="50" relative="1" as="geometry">
            <mxPoint x="70" y="430" as="sourcePoint" />
            <mxPoint x="344" y="520" as="targetPoint" />
          </mxGeometry>
        </mxCell>
        <mxCell id="kdzbjwUAarFGx3mEQd5Z-14" value="" style="endArrow=classic;html=1;rounded=0;" edge="1" parent="1">
          <mxGeometry width="50" height="50" relative="1" as="geometry">
            <mxPoint x="100" y="50" as="sourcePoint" />
            <mxPoint x="360" y="50" as="targetPoint" />
          </mxGeometry>
        </mxCell>
        <mxCell id="kdzbjwUAarFGx3mEQd5Z-15" value="1.PaymentRequest(amount,payment_method,type)" style="text;html=1;align=center;verticalAlign=middle;whiteSpace=wrap;rounded=0;" vertex="1" parent="1">
          <mxGeometry x="200" y="10" width="60" height="30" as="geometry" />
        </mxCell>
        <mxCell id="kdzbjwUAarFGx3mEQd5Z-16" value="2.ProcessPayment(amount,payment_method)" style="text;html=1;align=center;verticalAlign=middle;whiteSpace=wrap;rounded=0;" vertex="1" parent="1">
          <mxGeometry x="810" y="-190" width="60" height="30" as="geometry" />
        </mxCell>
        <mxCell id="kdzbjwUAarFGx3mEQd5Z-17" value="" style="endArrow=classic;html=1;rounded=0;" edge="1" parent="1">
          <mxGeometry width="50" height="50" relative="1" as="geometry">
            <mxPoint x="710" y="-155.71" as="sourcePoint" />
            <mxPoint x="980" y="-156" as="targetPoint" />
          </mxGeometry>
        </mxCell>
        <mxCell id="kdzbjwUAarFGx3mEQd5Z-18" value="" style="endArrow=classic;html=1;rounded=0;" edge="1" parent="1">
          <mxGeometry width="50" height="50" relative="1" as="geometry">
            <mxPoint x="980" y="-100" as="sourcePoint" />
            <mxPoint x="710" y="-100" as="targetPoint" />
          </mxGeometry>
        </mxCell>
        <mxCell id="kdzbjwUAarFGx3mEQd5Z-21" value="3.PaymentStatus(bool,refnum)" style="text;html=1;align=center;verticalAlign=middle;whiteSpace=wrap;rounded=0;" vertex="1" parent="1">
          <mxGeometry x="767" y="-140" width="60" height="30" as="geometry" />
        </mxCell>
        <mxCell id="kdzbjwUAarFGx3mEQd5Z-22" value="" style="endArrow=classic;html=1;rounded=0;" edge="1" parent="1">
          <mxGeometry width="50" height="50" relative="1" as="geometry">
            <mxPoint x="680" y="160" as="sourcePoint" />
            <mxPoint x="1040" y="160" as="targetPoint" />
          </mxGeometry>
        </mxCell>
        <mxCell id="kdzbjwUAarFGx3mEQd5Z-23" value="4.ConfirmPaymen(confirmation,refnum)" style="text;html=1;align=center;verticalAlign=middle;whiteSpace=wrap;rounded=0;" vertex="1" parent="1">
          <mxGeometry x="800" y="130" width="60" height="30" as="geometry" />
        </mxCell>
        <mxCell id="kdzbjwUAarFGx3mEQd5Z-24" value="" style="endArrow=classic;html=1;rounded=0;" edge="1" parent="1">
          <mxGeometry width="50" height="50" relative="1" as="geometry">
            <mxPoint x="1040" y="190" as="sourcePoint" />
            <mxPoint x="700" y="190" as="targetPoint" />
          </mxGeometry>
        </mxCell>
        <mxCell id="kdzbjwUAarFGx3mEQd5Z-25" value="5.updatereservation()" style="text;html=1;align=center;verticalAlign=middle;whiteSpace=wrap;rounded=0;" vertex="1" parent="1">
          <mxGeometry x="850" y="160" width="60" height="30" as="geometry" />
        </mxCell>
        <mxCell id="kdzbjwUAarFGx3mEQd5Z-26" value="" style="endArrow=classic;html=1;rounded=0;" edge="1" parent="1">
          <mxGeometry width="50" height="50" relative="1" as="geometry">
            <mxPoint x="350" y="260" as="sourcePoint" />
            <mxPoint x="160" y="260" as="targetPoint" />
          </mxGeometry>
        </mxCell>
        <mxCell id="kdzbjwUAarFGx3mEQd5Z-27" value="6.PaymentConfimartion()" style="text;html=1;align=center;verticalAlign=middle;whiteSpace=wrap;rounded=0;" vertex="1" parent="1">
          <mxGeometry x="230" y="230" width="60" height="30" as="geometry" />
        </mxCell>
      </root>
    </mxGraphModel>
  </diagram>
</mxfile>
